<svg width="1280" height="720" viewBox="0 0 1280 720" fill="none" xmlns="http://www.w3.org/2000/svg">
<g clip-path="url(#clip0_1_2)">
<rect width="1280" height="720" fill="#E3E3E3"/>
<g filter="url(#filter0_d_1_2)">
<rect x="17" y="14" width="1245" height="692" rx="30" fill="white"/>
</g>
<rect x="17" y="42" width="1245" height="636" fill="url(#paint0_linear_1_2)"/>
<rect x="821" y="61" width="209" height="119" rx="10" fill="white"/>
<g filter="url(#filter1_d_1_2)">
<rect x="31" y="61" width="750" height="288" rx="10" fill="url(#paint1_linear_1_2)" shape-rendering="crispEdges"/>
</g>
<g filter="url(#filter2_d_1_2)">
<rect x="31" y="371" width="750" height="288" rx="10" fill="url(#paint2_linear_1_2)" shape-rendering="crispEdges"/>
</g>
<rect x="877" y="326" width="302" height="333" rx="10" fill="white"/>
<rect x="821" y="197" width="209" height="119" rx="10" fill="white"/>
<rect x="1039" y="61" width="209" height="119" rx="10" fill="white"/>
<rect x="1039" y="197" width="209" height="119" rx="10" fill="white"/>
<rect x="49" y="14" width="139" height="5" fill="#D90B1C"/>
<rect x="833" y="73" width="33.8755" height="33.8755" rx="10" fill="#D90B1C"/>
<path d="M858.111 83.7594L848.472 86.8911C848.359 86.9636 848.229 87.0057 848.095 87.0137L844.787 88.0887H858.554C858.988 88.0887 859.34 88.4406 859.34 88.8747V96.7345C859.34 98.9049 857.58 100.664 855.41 100.664H844.406C842.236 100.664 840.476 98.9049 840.476 96.7345V88.8747C840.476 88.7069 840.529 88.5514 840.619 88.4237L840.311 87.4769C839.64 85.4127 840.77 83.1956 842.834 82.5249L853.299 79.1246C855.363 78.4539 857.58 79.5836 858.251 81.6477L858.615 82.769C858.75 83.1819 858.524 83.6253 858.111 83.7594ZM852.225 84.0189L854.246 80.519C854.092 80.5367 853.938 80.5699 853.785 80.6196L851.828 81.2556L849.772 84.816L852.225 84.0189ZM855.833 80.9081C855.824 80.9276 855.814 80.947 855.803 80.966L854.46 83.2929L856.877 82.5073L856.756 82.1335C856.587 81.6133 856.254 81.1919 855.833 80.9081ZM849.593 81.9816L847.14 82.7787L845.084 86.3391L847.538 85.542L849.593 81.9816ZM841.927 87.3649L842.85 87.0651L844.906 83.5047L843.32 84.02C842.081 84.4224 841.403 85.7526 841.806 86.9911L841.927 87.3649ZM842.048 89.6606V96.7345C842.048 98.0367 843.104 99.0924 844.406 99.0924H855.41C856.712 99.0924 857.768 98.0367 857.768 96.7345V89.6606H842.048Z" fill="white"/>
<rect x="1051" y="73" width="33.8755" height="33.8755" rx="10" fill="#D90B1C"/>
<path d="M1073.5 89.7589C1075.49 89.7589 1077.1 91.3726 1077.1 93.3631C1077.1 96.0448 1076 98.1934 1074.19 99.6459C1072.41 101.076 1070.02 101.773 1067.49 101.773C1064.96 101.773 1062.57 101.076 1060.79 99.6459C1058.98 98.1934 1057.88 96.0448 1057.88 93.3631C1057.88 91.4898 1059.31 89.9501 1061.13 89.7754L1061.48 89.7589H1073.5ZM1073.5 92.1617H1061.48C1060.82 92.1617 1060.28 92.6996 1060.28 93.3631C1060.28 95.326 1061.06 96.7816 1062.29 97.7721C1063.56 98.7856 1065.37 99.3701 1067.49 99.3701C1069.6 99.3701 1071.42 98.7856 1072.68 97.7721C1073.92 96.7816 1074.7 95.326 1074.7 93.3631C1074.7 92.7733 1074.27 92.2828 1073.71 92.1811L1073.5 92.1617ZM1067.49 77.745C1070.14 77.745 1072.29 79.8965 1072.29 82.5506C1072.29 85.2046 1070.14 87.3561 1067.49 87.3561C1064.83 87.3561 1062.68 85.2046 1062.68 82.5506C1062.68 79.8965 1064.83 77.745 1067.49 77.745ZM1067.49 80.1478C1066.16 80.1478 1065.09 81.2235 1065.09 82.5506C1065.09 83.8776 1066.16 84.9533 1067.49 84.9533C1068.82 84.9533 1069.89 83.8776 1069.89 82.5506C1069.89 81.2235 1068.82 80.1478 1067.49 80.1478Z" fill="white"/>
<rect x="833" y="209" width="33.8755" height="33.8755" rx="10" fill="#D90B1C"/>
<path d="M849.796 235.34C855.104 235.34 859.407 231.037 859.407 225.729C859.407 220.421 855.104 216.117 849.796 216.117C844.488 216.117 840.185 220.421 840.185 225.729C840.185 231.037 844.488 235.34 849.796 235.34ZM849.796 217.719C850.395 217.719 851.199 218.29 851.899 219.83C852.05 220.164 852.19 220.53 852.315 220.923H847.277C847.402 220.53 847.542 220.164 847.694 219.83C848.394 218.29 849.198 217.719 849.796 217.719ZM846.235 219.167C845.994 219.699 845.782 220.288 845.606 220.923H843.388C844.227 219.806 845.351 218.916 846.653 218.36C846.501 218.618 846.362 218.889 846.235 219.167ZM845.252 222.525C845.082 223.53 844.991 224.61 844.991 225.729C844.991 226.848 845.082 227.927 845.252 228.932H842.453C842.025 227.951 841.787 226.868 841.787 225.729C841.787 224.59 842.025 223.506 842.453 222.525H845.252ZM845.606 230.534C845.782 231.169 845.994 231.758 846.235 232.29C846.362 232.568 846.501 232.839 846.653 233.097C845.351 232.542 844.227 231.651 843.388 230.534H845.606ZM847.277 230.534H852.315C852.19 230.927 852.05 231.293 851.899 231.627C851.199 233.167 850.395 233.738 849.796 233.738C849.198 233.738 848.394 233.167 847.694 231.627C847.542 231.293 847.402 230.927 847.277 230.534ZM852.714 228.932H846.879C846.696 227.954 846.592 226.872 846.592 225.729C846.592 224.585 846.696 223.503 846.879 222.525H852.714C852.897 223.503 853 224.585 853 225.729C853 226.872 852.897 227.954 852.714 228.932ZM853.986 230.534H856.204C855.365 231.651 854.241 232.542 852.94 233.097C853.091 232.839 853.231 232.568 853.357 232.29C853.599 231.758 853.81 231.169 853.986 230.534ZM857.139 228.932H854.341C854.511 227.927 854.602 226.848 854.602 225.729C854.602 224.61 854.511 223.53 854.341 222.525H857.139C857.568 223.506 857.805 224.59 857.805 225.729C857.805 226.868 857.568 227.951 857.139 228.932ZM852.94 218.36C854.241 218.916 855.365 219.806 856.204 220.923H853.986C853.81 220.288 853.599 219.699 853.357 219.167C853.231 218.889 853.091 218.618 852.94 218.36Z" fill="white"/>
<rect x="1051" y="209" width="33.8755" height="33.8755" rx="10" fill="#D90B1C"/>
<path d="M1064.36 221.667C1064.36 222.236 1063.9 222.697 1063.33 222.697C1062.77 222.697 1062.3 222.236 1062.3 221.667C1062.3 221.099 1062.77 220.638 1063.33 220.638C1063.9 220.638 1064.36 221.099 1064.36 221.667Z" fill="white"/>
<path d="M1063.33 226.816C1063.9 226.816 1064.36 226.355 1064.36 225.787C1064.36 225.218 1063.9 224.757 1063.33 224.757C1062.77 224.757 1062.3 225.218 1062.3 225.787C1062.3 226.355 1062.77 226.816 1063.33 226.816Z" fill="white"/>
<path d="M1064.36 229.906C1064.36 230.474 1063.9 230.935 1063.33 230.935C1062.77 230.935 1062.3 230.474 1062.3 229.906C1062.3 229.337 1062.77 228.876 1063.33 228.876C1063.9 228.876 1064.36 229.337 1064.36 229.906Z" fill="white"/>
<path d="M1067.11 221.324C1066.73 221.324 1066.42 221.632 1066.42 222.011C1066.42 222.39 1066.73 222.697 1067.11 222.697H1072.6C1072.98 222.697 1073.29 222.39 1073.29 222.011C1073.29 221.632 1072.98 221.324 1072.6 221.324H1067.11Z" fill="white"/>
<path d="M1066.42 226.13C1066.42 225.751 1066.73 225.443 1067.11 225.443H1072.6C1072.98 225.443 1073.29 225.751 1073.29 226.13C1073.29 226.509 1072.98 226.816 1072.6 226.816H1067.11C1066.73 226.816 1066.42 226.509 1066.42 226.13Z" fill="white"/>
<path d="M1067.11 229.562C1066.73 229.562 1066.42 229.87 1066.42 230.249C1066.42 230.628 1066.73 230.935 1067.11 230.935H1072.6C1072.98 230.935 1073.29 230.628 1073.29 230.249C1073.29 229.87 1072.98 229.562 1072.6 229.562H1067.11Z" fill="white"/>
<path d="M1058.18 218.578C1058.18 217.062 1059.41 215.832 1060.93 215.832H1074.66C1076.18 215.832 1077.41 217.062 1077.41 218.578V232.308C1077.41 233.825 1076.18 235.054 1074.66 235.054H1060.93C1059.41 235.054 1058.18 233.825 1058.18 232.308V218.578ZM1060.93 217.205C1060.17 217.205 1059.56 217.82 1059.56 218.578V232.308C1059.56 233.067 1060.17 233.681 1060.93 233.681H1074.66C1075.42 233.681 1076.03 233.067 1076.03 232.308V218.578C1076.03 217.82 1075.42 217.205 1074.66 217.205H1060.93Z" fill="white"/>
</g>
<defs>
<filter id="filter0_d_1_2" x="-2" y="-5" width="1283" height="730" filterUnits="userSpaceOnUse" color-interpolation-filters="sRGB">
<feFlood flood-opacity="0" result="BackgroundImageFix"/>
<feColorMatrix in="SourceAlpha" type="matrix" values="0 0 0 0 0 0 0 0 0 0 0 0 0 0 0 0 0 0 127 0" result="hardAlpha"/>
<feMorphology radius="4" operator="dilate" in="SourceAlpha" result="effect1_dropShadow_1_2"/>
<feOffset/>
<feGaussianBlur stdDeviation="7.5"/>
<feComposite in2="hardAlpha" operator="out"/>
<feColorMatrix type="matrix" values="0 0 0 0 0 0 0 0 0 0 0 0 0 0 0 0 0 0 0.1 0"/>
<feBlend mode="normal" in2="BackgroundImageFix" result="effect1_dropShadow_1_2"/>
<feBlend mode="normal" in="SourceGraphic" in2="effect1_dropShadow_1_2" result="shape"/>
</filter>
<filter id="filter1_d_1_2" x="27" y="61" width="758" height="296" filterUnits="userSpaceOnUse" color-interpolation-filters="sRGB">
<feFlood flood-opacity="0" result="BackgroundImageFix"/>
<feColorMatrix in="SourceAlpha" type="matrix" values="0 0 0 0 0 0 0 0 0 0 0 0 0 0 0 0 0 0 127 0" result="hardAlpha"/>
<feOffset dy="4"/>
<feGaussianBlur stdDeviation="2"/>
<feComposite in2="hardAlpha" operator="out"/>
<feColorMatrix type="matrix" values="0 0 0 0 0 0 0 0 0 0 0 0 0 0 0 0 0 0 0.15 0"/>
<feBlend mode="normal" in2="BackgroundImageFix" result="effect1_dropShadow_1_2"/>
<feBlend mode="normal" in="SourceGraphic" in2="effect1_dropShadow_1_2" result="shape"/>
</filter>
<filter id="filter2_d_1_2" x="27" y="371" width="758" height="296" filterUnits="userSpaceOnUse" color-interpolation-filters="sRGB">
<feFlood flood-opacity="0" result="BackgroundImageFix"/>
<feColorMatrix in="SourceAlpha" type="matrix" values="0 0 0 0 0 0 0 0 0 0 0 0 0 0 0 0 0 0 127 0" result="hardAlpha"/>
<feOffset dy="4"/>
<feGaussianBlur stdDeviation="2"/>
<feComposite in2="hardAlpha" operator="out"/>
<feColorMatrix type="matrix" values="0 0 0 0 0 0 0 0 0 0 0 0 0 0 0 0 0 0 0.15 0"/>
<feBlend mode="normal" in2="BackgroundImageFix" result="effect1_dropShadow_1_2"/>
<feBlend mode="normal" in="SourceGraphic" in2="effect1_dropShadow_1_2" result="shape"/>
</filter>
<linearGradient id="paint0_linear_1_2" x1="639.5" y1="42" x2="639.5" y2="678" gradientUnits="userSpaceOnUse">
<stop stop-color="#D90B1C" stop-opacity="0.74"/>
<stop offset="1" stop-color="#780913"/>
</linearGradient>
<linearGradient id="paint1_linear_1_2" x1="406" y1="61" x2="406" y2="349" gradientUnits="userSpaceOnUse">
<stop stop-color="#F20732" stop-opacity="0.28"/>
<stop offset="1" stop-color="#590E15"/>
</linearGradient>
<linearGradient id="paint2_linear_1_2" x1="406" y1="371" x2="406" y2="659" gradientUnits="userSpaceOnUse">
<stop stop-color="#F20732" stop-opacity="0.28"/>
<stop offset="1" stop-color="#590E15"/>
</linearGradient>
<clipPath id="clip0_1_2">
<rect width="1280" height="720" fill="white"/>
</clipPath>
</defs>
</svg>
